<svg version="1.1" id="Icon_Set" xmlns="http://www.w3.org/2000/svg" x="0" y="0" viewBox="0 0 64 64" style="enable-background:new 0 0 64 64" xml:space="preserve"><style>.st0,.st1{fill:none;stroke:#37474f;stroke-linecap:round;stroke-linejoin:round;stroke-miterlimit:10}.st1{fill:#ffb300}</style><g id="Business_Team"><path class="st0" d="M50.5 15.5h5M57.5 15.5h1M13.5 15.5h-5M6.5 15.5h-1"/><circle class="st0" cx="32" cy="8.5" r="8"/><path class="st1" d="m37.5 3.9.6-.5C36.6 1.6 34.4.5 32 .5c-4.4 0-8 3.6-8 8h.8c4.6 0 9.2-1.6 12.7-4.6z"/><path class="st0" d="M32 16.5c-1.1 0-2.1-.2-3-.6v1.6l3 4.5 3-4.5v-1.6c-.9.4-1.9.6-3 .6zM39 27.5v7M25 27.5v7"/><path style="fill:#ff7043;stroke:#37474f;stroke-linecap:round;stroke-linejoin:round;stroke-miterlimit:10" d="M34.5 34 32 36.5 29.5 34 31 22h2z"/><path class="st0" d="m29 17.5-.5 4.5h7l-.5-4.5-3 4.5z"/><path class="st0" d="M44 28.9v-4.2c0-2-1.2-3.8-3-4.6l-6-2.7-3 4.6-3-4.5-6 2.7c-1.8.8-3 2.6-3 4.6v4.1"/><g><circle class="st0" cx="12.5" cy="35.5" r="8"/><path class="st1" d="m18 30.9.6-.5c-1.5-1.8-3.7-2.9-6.1-2.9-4.4 0-8 3.6-8 8h.8c4.6 0 9.2-1.6 12.7-4.6z"/><g><path class="st0" d="M12.5 43.5c-1.1 0-2.1-.2-3-.6v1.6l3 4.5 3-4.5v-1.6c-.9.4-1.9.6-3 .6zM19.5 54.5v7M5.5 54.5v7"/><path style="fill:#90caf9;stroke:#37474f;stroke-linecap:round;stroke-linejoin:round;stroke-miterlimit:10" d="m15 61-2.5 2.5L10 61l1.5-12h2z"/><path class="st0" d="M9.5 44.5 9 49h7l-.5-4.5-3 4.5z"/><path class="st0" d="M24.5 61.5v-9.8c0-2-1.2-3.8-3-4.6l-6-2.7-3 4.5-3-4.5-6 2.7c-1.8.8-3 2.6-3 4.6v9.8"/></g></g><g><circle class="st0" cx="51.5" cy="35.5" r="8"/><path class="st1" d="m57 30.9.6-.5c-1.5-1.8-3.7-2.9-6.1-2.9-4.4 0-8 3.6-8 8h.8c4.6 0 9.2-1.6 12.7-4.6z"/><g><path class="st0" d="M51.5 43.5c-1.1 0-2.1-.2-3-.6v1.6l3 4.5 3-4.5v-1.6c-.9.4-1.9.6-3 .6zM58.5 54.5v7M44.5 54.5v7"/><path style="fill:#9ccc65;stroke:#37474f;stroke-linecap:round;stroke-linejoin:round;stroke-miterlimit:10" d="m54 61-2.5 2.5L49 61l1.5-12h2z"/><path class="st0" d="M48.5 44.5 48 49h7l-.5-4.5-3 4.5z"/><path class="st0" d="M63.5 61.5v-9.8c0-2-1.2-3.8-3-4.6l-6-2.7-3 4.5-3-4.5-6 2.7c-1.8.8-3 2.6-3 4.6v9.8"/></g></g><g><path class="st0" d="M32 39v6"/></g><path class="st0" d="M26.4 48.6 32 45l5.6 3.6"/></g></svg>